<svg width="800" height="600" viewBox="0 0 800 600" fill="none" xmlns="http://www.w3.org/2000/svg">
  <rect width="800" height="600" fill="#090D16"/>
  <g opacity="0.2">
    <path d="M0 40H800" stroke="#22D3EE" stroke-width="1"/>
    <path d="M0 80H800" stroke="#22D3EE" stroke-width="1"/>
    <path d="M0 120H800" stroke="#22D3EE" stroke-width="1"/>
    <path d="M0 160H800" stroke="#22D3EE" stroke-width="1"/>
    <path d="M0 200H800" stroke="#22D3EE" stroke-width="1"/>
    <path d="M0 240H800" stroke="#22D3EE" stroke-width="1"/>
    <path d="M0 280H800" stroke="#22D3EE" stroke-width="1"/>
    <path d="M0 320H800" stroke="#22D3EE" stroke-width="1"/>
    <path d="M0 360H800" stroke="#22D3EE" stroke-width="1"/>
    <path d="M0 400H800" stroke="#22D3EE" stroke-width="1"/>
    <path d="M0 440H800" stroke="#22D3EE" stroke-width="1"/>
    <path d="M0 480H800" stroke="#22D3EE" stroke-width="1"/>
    <path d="M0 520H800" stroke="#22D3EE" stroke-width="1"/>
    <path d="M0 560H800" stroke="#22D3EE" stroke-width="1"/>
    <path d="M60 0V600" stroke="#38BDF8" stroke-width="1"/>
    <path d="M120 0V600" stroke="#38BDF8" stroke-width="1"/>
    <path d="M180 0V600" stroke="#38BDF8" stroke-width="1"/>
    <path d="M240 0V600" stroke="#38BDF8" stroke-width="1"/>
    <path d="M300 0V600" stroke="#38BDF8" stroke-width="1"/>
    <path d="M360 0V600" stroke="#38BDF8" stroke-width="1"/>
    <path d="M420 0V600" stroke="#38BDF8" stroke-width="1"/>
    <path d="M480 0V600" stroke="#38BDF8" stroke-width="1"/>
    <path d="M540 0V600" stroke="#38BDF8" stroke-width="1"/>
    <path d="M600 0V600" stroke="#38BDF8" stroke-width="1"/>
    <path d="M660 0V600" stroke="#38BDF8" stroke-width="1"/>
    <path d="M720 0V600" stroke="#38BDF8" stroke-width="1"/>
    <path d="M780 0V600" stroke="#38BDF8" stroke-width="1"/>
  </g>
  <g opacity="0.45">
    <text x="36" y="98" fill="#22D3EE" font-family="monospace" font-size="22">&lt;/&gt;</text>
    <text x="460" y="170" fill="#34D399" font-family="monospace" font-size="18">const solve = () =&gt; {"{"}</text>
    <text x="490" y="198" fill="#93C5FD" font-family="monospace" font-size="18">return streak + 1;</text>
    <text x="460" y="226" fill="#34D399" font-family="monospace" font-size="18">{"}"};</text>
    <text x="74" y="420" fill="#A78BFA" font-family="monospace" font-size="17">def solve_puzzle(day):</text>
    <text x="96" y="446" fill="#C4B5FD" font-family="monospace" font-size="17">return f"solved_{'{'}day{'}'}"</text>
  </g>
</svg>
