<svg xmlns="http://www.w3.org/2000/svg" style="display:none">
  <symbol id="lock" viewBox="0 0 24 24">
    <rect x="3" y="11" width="18" height="11" rx="2"></rect>
    <path d="M7 11V7a5 5 0 0 1 10 0v4"></path>
  </symbol>
  <symbol id="key" viewBox="0 0 24 24">
    <circle cx="7" cy="14" r="3"></circle>
    <path d="M10 14h11l-3 3m0-3l-3 3"></path>
  </symbol>
  <symbol id="eye" viewBox="0 0 24 24">
    <path d="M2 12s4-6 10-6 10 6 10 6-4 6-10 6-10-6-10-6z"></path>
    <circle cx="12" cy="12" r="3"></circle>
  </symbol>
  <symbol id="eye-off" viewBox="0 0 24 24">
    <path d="M2 12s4-6 10-6 10 6 10 6-4 6-10 6-10-6-10-6z"></path>
    <circle cx="12" cy="12" r="3"></circle>
    <path d="M3 3l18 18"></path>
  </symbol>
  <symbol id="bolt" viewBox="0 0 24 24">
    <path d="M13 2L3 14h7l-1 8 10-12h-7l1-8z"></path>
  </symbol>
  <symbol id="cloud-off" viewBox="0 0 24 24">
    <path d="M5 16a4 4 0 0 1 0-8 5 5 0 0 1 9.5-1.5A4.5 4.5 0 0 1 19 16H7"></path>
    <path d="M3 3l18 18"></path>
  </symbol>
  <symbol id="moon" viewBox="0 0 24 24">
    <path d="M21 12.8A8 8 0 0 1 11.2 3a8 8 0 1 0 9.8 9.8z"></path>
  </symbol>
  <symbol id="sun" viewBox="0 0 24 24">
    <circle cx="12" cy="12" r="4"></circle>
    <path d="M12 2v3M12 19v3M4.2 4.2l2.1 2.1M17.7 17.7l2.1 2.1M2 12h3M19 12h3M4.2 19.8l2.1-2.1M17.7 6.3l2.1-2.1"></path>
  </symbol>
  <symbol id="heart" viewBox="0 0 24 24">
    <path d="M20.8 8.5a5.5 5.5 0 0 0-9.2-3.9L12 5l.4-.4a5.5 5.5 0 0 0-9.2 3.9C3.2 14 12 20.5 12 20.5S20.8 14 20.8 8.5z"></path>
  </symbol>
  <symbol id="search" viewBox="0 0 24 24">
    <circle cx="11" cy="11" r="7"></circle>
    <path d="M20 20l-3.5-3.5"></path>
  </symbol>
  <symbol id="plus" viewBox="0 0 24 24">
    <path d="M12 5v14M5 12h14"></path>
  </symbol>
  <symbol id="download" viewBox="0 0 24 24">
    <path d="M12 3v12"></path>
    <path d="M7 10l5 5 5-5"></path>
    <path d="M5 21h14"></path>
  </symbol>
  <symbol id="upload" viewBox="0 0 24 24">
    <path d="M12 21V9"></path>
    <path d="M7 14l5-5 5 5"></path>
    <path d="M5 3h14"></path>
  </symbol>
  <symbol id="clipboard" viewBox="0 0 24 24">
    <rect x="9" y="2" width="6" height="4" rx="1"></rect>
    <rect x="6" y="4" width="12" height="18" rx="2"></rect>
  </symbol>
  <symbol id="save" viewBox="0 0 24 24">
    <path d="M19 21H5a2 2 0 0 1-2-2V5l4-4h10l4 4v14a2 2 0 0 1-2 2z"></path>
    <path d="M7 21v-6h10v6"></path>
    <path d="M7 3v4h8"></path>
  </symbol>
  <symbol id="pencil" viewBox="0 0 24 24">
    <path d="M12 20h9"></path>
    <path d="M16.5 3.5a2.1 2.1 0 0 1 3 3L7 19l-4 1 1-4 12.5-12.5z"></path>
  </symbol>
  <symbol id="user" viewBox="0 0 24 24">
    <circle cx="12" cy="7" r="4"></circle>
    <path d="M5.5 21a6.5 6.5 0 0 1 13 0"></path>
  </symbol>
  <symbol id="trash" viewBox="0 0 24 24">
    <path d="M3 6h18"></path>
    <path d="M8 6V4h8v2"></path>
    <path d="M7 6l1 14h8l1-14"></path>
  </symbol>
  <symbol id="star" viewBox="0 0 24 24">
    <path d="M12 3l2.9 5.9 6.5 1-4.7 4.5 1.1 6.4L12 17.8 6.2 20.8l1.1-6.4L2.6 9.9l6.5-1z"></path>
  </symbol>
  <symbol id="star-fill" viewBox="0 0 24 24">
    <path d="M12 3l2.9 5.9 6.5 1-4.7 4.5 1.1 6.4L12 17.8 6.2 20.8l1.1-6.4L2.6 9.9l6.5-1z" fill="currentColor"></path>
  </symbol>
  <symbol id="alert" viewBox="0 0 24 24">
    <path d="M10.3 3.3l-8 14a2 2 0 0 0 1.7 3h16a2 2 0 0 0 1.7-3l-8-14a2 2 0 0 0-3.4 0z"></path>
    <path d="M12 9v4"></path>
    <path d="M12 17h.01"></path>
  </symbol>
  <symbol id="clock" viewBox="0 0 24 24">
    <circle cx="12" cy="12" r="9"></circle>
    <path d="M12 7v6l4 2"></path>
  </symbol>
  <symbol id="check" viewBox="0 0 24 24">
    <path d="M20 6L9 17l-5-5"></path>
  </symbol>
  <symbol id="x" viewBox="0 0 24 24">
    <path d="M18 6L6 18"></path>
    <path d="M6 6l12 12"></path>
  </symbol>
  <symbol id="refresh" viewBox="0 0 24 24">
    <path d="M21 12a9 9 0 1 1-3-6.7"></path>
    <path d="M21 3v6h-6"></path>
  </symbol>
</svg>
