<svg xmlns="http://www.w3.org/2000/svg" aria-hidden="true" focusable="false">
  <symbol id="icon-logo" viewBox="0 0 24 24">
    <path d="M12 2C6.48 2 2 6.48 2 12s4.48 10 10 10 10-4.48 10-10S17.52 2 12 2z" fill="rgba(255,255,255,0.25)"/>
    <path d="M12 5 Q19 12 12 19 Q5 12 12 5Z" fill="rgba(255,255,255,0.6)"/>
    <circle cx="12" cy="12" r="3.5" fill="#fff"/>
  </symbol>

  <symbol id="icon-open" viewBox="0 0 24 24">
    <path d="M18 13v6a2 2 0 01-2 2H5a2 2 0 01-2-2V8a2 2 0 012-2h6"/>
    <polyline points="15 3 21 3 21 9"/>
    <line x1="10" y1="14" x2="21" y2="3"/>
  </symbol>

  <symbol id="icon-gradient" viewBox="0 0 24 24">
    <circle cx="12" cy="12" r="9"/>
    <path d="M8 12h8M12 8v8"/>
  </symbol>

  <symbol id="icon-square" viewBox="0 0 24 24">
    <rect x="3" y="3" width="18" height="18" rx="4"/>
  </symbol>

  <symbol id="icon-dots" viewBox="0 0 24 24">
    <circle cx="5" cy="5" r="1.5" fill="currentColor"/>
    <circle cx="12" cy="5" r="1.5" fill="currentColor"/>
    <circle cx="19" cy="5" r="1.5" fill="currentColor"/>
    <circle cx="5" cy="12" r="1.5" fill="currentColor"/>
    <circle cx="12" cy="12" r="1.5" fill="currentColor"/>
    <circle cx="19" cy="12" r="1.5" fill="currentColor"/>
    <circle cx="5" cy="19" r="1.5" fill="currentColor"/>
    <circle cx="12" cy="19" r="1.5" fill="currentColor"/>
    <circle cx="19" cy="19" r="1.5" fill="currentColor"/>
  </symbol>

  <symbol id="icon-bookmark" viewBox="0 0 24 24">
    <path d="M19 21l-7-5-7 5V5a2 2 0 012-2h10a2 2 0 012 2z"/>
  </symbol>

  <symbol id="icon-image" viewBox="0 0 24 24">
    <rect x="3" y="3" width="18" height="18" rx="2"/>
    <circle cx="8.5" cy="8.5" r="1.5"/>
    <polyline points="21 15 16 10 5 21"/>
  </symbol>

  <symbol id="icon-recent" viewBox="0 0 24 24">
    <circle cx="12" cy="12" r="10"/>
    <polyline points="12 6 12 12 16 14"/>
  </symbol>

  <symbol id="icon-random" viewBox="0 0 24 24">
    <polyline points="16 3 21 3 21 8"/>
    <line x1="4" y1="20" x2="21" y2="3"/>
    <polyline points="21 16 21 21 16 21"/>
    <line x1="15" y1="15" x2="21" y2="21"/>
  </symbol>

  <symbol id="icon-copy" viewBox="0 0 24 24">
    <rect x="9" y="9" width="13" height="13" rx="2"/>
    <path d="M5 15H4a2 2 0 01-2-2V4a2 2 0 012-2h9a2 2 0 012 2v1"/>
  </symbol>

  <symbol id="icon-close" viewBox="0 0 24 24">
    <line x1="18" y1="6" x2="6" y2="18"/>
    <line x1="6" y1="6" x2="18" y2="18"/>
  </symbol>

  <symbol id="icon-chevron-right" viewBox="0 0 24 24">
    <polyline points="9 18 15 12 9 6"/>
  </symbol>
</svg>
