<svg width="256" height="256" viewBox="0 0 256 256" fill="none" xmlns="http://www.w3.org/2000/svg">
  <defs>
    <linearGradient id="shieldGrad" x1="46" y1="24" x2="205" y2="224" gradientUnits="userSpaceOnUse">
      <stop offset="0" stop-color="#8CC8FF"/>
      <stop offset="0.5" stop-color="#4D9FFF"/>
      <stop offset="1" stop-color="#1D67DC"/>
    </linearGradient>
    <linearGradient id="shineGrad" x1="88" y1="52" x2="152" y2="156" gradientUnits="userSpaceOnUse">
      <stop offset="0" stop-color="white" stop-opacity="0.78"/>
      <stop offset="1" stop-color="white" stop-opacity="0"/>
    </linearGradient>
    <linearGradient id="cookieGrad" x1="90" y1="84" x2="169" y2="170" gradientUnits="userSpaceOnUse">
      <stop offset="0" stop-color="#FFFFFF"/>
      <stop offset="1" stop-color="#E3F0FF"/>
    </linearGradient>
    <filter id="shadow" x="28" y="18" width="200" height="218" filterUnits="userSpaceOnUse" color-interpolation-filters="sRGB">
      <feFlood flood-opacity="0" result="BackgroundImageFix"/>
      <feColorMatrix in="SourceAlpha" type="matrix" values="0 0 0 0 0 0 0 0 0 0 0 0 0 0 0 0 0 0 127 0" result="hardAlpha"/>
      <feOffset dy="8"/>
      <feGaussianBlur stdDeviation="10"/>
      <feColorMatrix type="matrix" values="0 0 0 0 0.113725 0 0 0 0 0.403922 0 0 0 0 0.862745 0 0 0 0.24 0"/>
      <feBlend mode="normal" in2="BackgroundImageFix" result="effect1_dropShadow_0_1"/>
      <feBlend mode="normal" in="SourceGraphic" in2="effect1_dropShadow_0_1" result="shape"/>
    </filter>
  </defs>

  <g filter="url(#shadow)">
    <path d="M128 24L196 51V108C196 159.8 167.8 203.7 128 226C88.2 203.7 60 159.8 60 108V51L128 24Z" fill="url(#shieldGrad)"/>
    <path d="M128 38L184 60.5V108C184 151.3 160.7 189.2 128 208.6C95.3 189.2 72 151.3 72 108V60.5L128 38Z" fill="white" fill-opacity="0.12"/>
    <path d="M88 64C105 56 122 52 152 54C123 68 108 93 102 123C91 112 84 95 84 79C84 73.8 85.4 68.8 88 64Z" fill="url(#shineGrad)"/>

    <circle cx="128" cy="128" r="44" fill="url(#cookieGrad)"/>
    <circle cx="128" cy="128" r="33" fill="#F8FBFF"/>
    <circle cx="110" cy="111" r="6.8" fill="#3E8EF5"/>
    <circle cx="146" cy="104" r="5.6" fill="#78BAFF"/>
    <circle cx="157" cy="129" r="6.3" fill="#1E69DD"/>
    <circle cx="141" cy="151" r="5.1" fill="#65AFFF"/>
    <circle cx="111" cy="148" r="5.7" fill="#8BCBFF"/>
    <circle cx="99" cy="126" r="4.6" fill="#4A9FFF"/>

    <path d="M177 73C170.2 75.8 164.5 80.3 160.2 86.5" stroke="white" stroke-opacity="0.6" stroke-width="6.5" stroke-linecap="round"/>
  </g>
</svg>
