<?xml version="1.0" encoding="utf-8"?>
<!-- Svg Vector Icons : http://www.onlinewebfonts.com/icon -->
<!DOCTYPE svg PUBLIC "-//W3C//DTD SVG 1.1//EN" "http://www.w3.org/Graphics/SVG/1.1/DTD/svg11.dtd">
<svg version="1.1" xmlns="http://www.w3.org/2000/svg" xmlns:xlink="http://www.w3.org/1999/xlink" x="0px" y="0px" viewBox="0 0 256 256" enable-background="new 0 0 256 256" xml:space="preserve">
<metadata> Svg Vector Icons : http://www.onlinewebfonts.com/icon </metadata>
<g><g><g><path fill="#000000" d="M128,10C62.8,10,10,62.8,10,128c0,65.2,52.8,118,118,118c65.2,0,118-52.8,118-118C246,62.8,193.2,10,128,10z M192.1,66.3c-2,0.3-4.2,0.4-6.3,0.4c-8.7,0.1-14.8,4.2-17.2,12.5c-1.5,5.1-2.3,10.4-3.6,16.3c4,0,7.5,0,11.1,0c4.6,0,6.6,1.8,6.4,6.3c-0.2,3.4-0.9,6.9-2,10.2c-1.3,3.7-4.1,5.7-8.4,5.5c-3.5-0.2-7,0-10.7,0c-1.7,9.5-3.3,18.8-5,28c-2,11.2-4,22.5-5.9,33.7c-3.5,20.3-16.4,31.6-37.4,32.2c-16.9,0.4-33.8,0.1-50.7,0.1c-3.6,0-4.4-1.1-3.6-4.5c1.1-4.8,2.2-9.5,3.3-14.3c1-4.2,3.1-5.8,7.5-5.8c11.9,0,23.8,0,35.7,0c9.9,0,15.1-3.9,16.9-13.6c3.4-17.9,6.4-35.8,9.6-53.7c0.1-0.6,0.1-1.1,0.3-2.3c-5.6,0-10.7-0.1-15.8,0c-3.1,0.1-4.7-1.2-5.3-4.2c-0.8-4.2-2-8.4-3-12.6c-0.9-3.9,0.1-5.2,4.1-5.2c7.9,0,15.8,0,24,0c0.7-3.9,1.3-7.5,2-11.2c2.8-15.2,9.7-27.7,24-35c7.8-4,16.1-5.4,24.8-4.9c5.3,0.3,7.7,2.5,9,7.6c0.6,2.4,1.1,4.8,1.4,7.2C197.9,63.6,196.5,65.6,192.1,66.3z"/></g><g></g><g></g><g></g><g></g><g></g><g></g><g></g><g></g><g></g><g></g><g></g><g></g><g></g><g></g><g></g></g></g>
</svg>