<svg xmlns="http://www.w3.org/2000/svg" viewBox="0 0 100 100">
  <circle cx="50" cy="50" r="10" fill="#FF6B6B"/>
  
  <!-- Petals -->
  <ellipse cx="50" cy="30" rx="8" ry="15" fill="#4ECDC4" transform="rotate(0 50 50)"/>
  <ellipse cx="65" cy="35" rx="8" ry="15" fill="#4ECDC4" transform="rotate(45 50 50)"/>
  <ellipse cx="70" cy="50" rx="8" ry="15" fill="#4ECDC4" transform="rotate(90 50 50)"/>
  <ellipse cx="65" cy="65" rx="8" ry="15" fill="#4ECDC4" transform="rotate(135 50 50)"/>
  <ellipse cx="50" cy="70" rx="8" ry="15" fill="#4ECDC4" transform="rotate(180 50 50)"/>
  <ellipse cx="35" cy="65" rx="8" ry="15" fill="#4ECDC4" transform="rotate(225 50 50)"/>
  <ellipse cx="30" cy="50" rx="8" ry="15" fill="#4ECDC4" transform="rotate(270 50 50)"/>
  <ellipse cx="35" cy="35" rx="8" ry="15" fill="#4ECDC4" transform="rotate(315 50 50)"/>
  
  <!-- Outer circle -->
  <circle cx="50" cy="50" r="40" fill="none" stroke="#FFEAA7" stroke-width="1.5"/>
</svg>